<svg width="50" height="50" viewBox="0 0 50 50" fill="none" xmlns="http://www.w3.org/2000/svg">
<path d="M41.2501 40.625C36.8751 43.8542 30.3126 45.8333 25.0001 45.8333C17.3959 45.8333 10.6251 42.8125 5.41673 38.125C5.00006 37.7083 5.41673 37.2917 5.8334 37.5C11.4584 40.7292 17.8126 42.6042 24.8959 42.6042C29.6876 42.6042 35.7292 41.5625 40.6251 39.4792C41.3542 39.2708 41.9792 40.1042 41.2501 40.625ZM42.8126 38.4375C42.2917 37.7083 39.1667 38.125 37.8126 38.2292C37.3959 38.2292 37.2917 37.9167 37.7084 37.6042C40.1042 35.8333 44.1667 36.3542 44.5834 36.9792C45.0001 37.6042 44.4792 41.6667 42.1876 43.5417C41.8751 43.8542 41.4584 43.6458 41.6667 43.3333C42.1876 42.0833 43.3334 39.1667 42.8126 38.4375Z" fill="#FFB300"/>
<path d="M38.4368 31.0417C37.3952 29.6875 36.3535 28.5417 36.3535 25.9375V17.2917C36.3535 13.6458 36.3535 10.4167 33.7493 7.91667C31.666 5.9375 28.2285 5.20834 25.5202 5.20834C19.791 5.20834 14.791 7.5 13.541 13.9583C13.4368 14.6875 13.9577 15 14.3743 15.1042L19.6868 15.7292C20.2077 15.7292 20.5202 15.2083 20.6243 14.6875C21.041 12.5 22.8118 11.4583 24.8952 11.4583C26.041 11.4583 28.2285 12.0833 28.2285 14.5833V17.7083C24.8952 17.7083 21.3535 17.7083 18.4368 18.9583C14.9993 20.4167 12.6035 23.4375 12.6035 27.9167C12.6035 33.6458 16.1452 36.4583 20.7285 36.4583C24.5827 36.4583 26.8743 35.5208 29.8952 32.5C30.8327 33.9583 31.2493 34.7917 33.0202 36.3542C33.4368 36.5625 33.9577 36.5625 34.2702 36.25C35.3118 35.3125 37.291 33.5417 38.4368 32.6042C38.9577 32.1875 38.8535 31.5625 38.4368 31.0417ZM28.1243 23.0208C28.1243 25.1042 28.0202 30.2083 22.916 30.2083C19.791 30.2083 19.791 27.0833 19.791 27.0833C19.791 22.3958 24.166 21.875 28.1243 21.875V23.0208Z" fill="white"/>
</svg>
