<svg width="17" height="17" viewBox="0 0 17 17" fill="none" xmlns="http://www.w3.org/2000/svg">
<path d="M16.4961 2.13416V13.0808C16.4961 13.4157 16.363 13.737 16.1262 13.9739C15.8894 14.2107 15.5681 14.3438 15.2332 14.3438C14.8982 14.3438 14.577 14.2107 14.3402 13.9739C14.1033 13.737 13.9703 13.4157 13.9703 13.0808V5.18658L2.65574 16.5005C2.41849 16.7378 2.09671 16.8711 1.76119 16.8711C1.42566 16.8711 1.10388 16.7378 0.866631 16.5005C0.62938 16.2632 0.496094 15.9414 0.496094 15.6058C0.496094 15.2703 0.62938 14.9484 0.866631 14.7112L12.1812 3.39723H4.28804C3.9531 3.39723 3.63188 3.26416 3.39504 3.02729C3.1582 2.79041 3.02514 2.46915 3.02514 2.13416C3.02514 1.79918 3.1582 1.47791 3.39504 1.24104C3.63188 1.00417 3.9531 0.871094 4.28804 0.871094H15.2332C15.5681 0.871094 15.8894 1.00417 16.1262 1.24104C16.363 1.47791 16.4961 1.79918 16.4961 2.13416Z" fill="white"/>
</svg>
