<svg width="15" height="16" viewBox="0 0 15 16" fill="none" xmlns="http://www.w3.org/2000/svg">
<path d="M13.75 1.23077H11.875V0.615385C11.875 0.452174 11.8092 0.295649 11.6919 0.180242C11.5747 0.064835 11.4158 0 11.25 0C11.0842 0 10.9253 0.064835 10.8081 0.180242C10.6908 0.295649 10.625 0.452174 10.625 0.615385V1.23077H4.375V0.615385C4.375 0.452174 4.30915 0.295649 4.19194 0.180242C4.07473 0.064835 3.91576 0 3.75 0C3.58424 0 3.42527 0.064835 3.30806 0.180242C3.19085 0.295649 3.125 0.452174 3.125 0.615385V1.23077H1.25C0.918479 1.23077 0.600537 1.36044 0.366116 1.59125C0.131696 1.82207 0 2.13512 0 2.46154V14.7692C0 15.0957 0.131696 15.4087 0.366116 15.6395C0.600537 15.8703 0.918479 16 1.25 16H13.75C14.0815 16 14.3995 15.8703 14.6339 15.6395C14.8683 15.4087 15 15.0957 15 14.7692V2.46154C15 2.13512 14.8683 1.82207 14.6339 1.59125C14.3995 1.36044 14.0815 1.23077 13.75 1.23077ZM3.125 2.46154V3.07692C3.125 3.24013 3.19085 3.39666 3.30806 3.51207C3.42527 3.62747 3.58424 3.69231 3.75 3.69231C3.91576 3.69231 4.07473 3.62747 4.19194 3.51207C4.30915 3.39666 4.375 3.24013 4.375 3.07692V2.46154H10.625V3.07692C10.625 3.24013 10.6908 3.39666 10.8081 3.51207C10.9253 3.62747 11.0842 3.69231 11.25 3.69231C11.4158 3.69231 11.5747 3.62747 11.6919 3.51207C11.8092 3.39666 11.875 3.24013 11.875 3.07692V2.46154H13.75V4.92308H1.25V2.46154H3.125ZM13.75 14.7692H1.25V6.15385H13.75V14.7692ZM8.4375 8.92308C8.4375 9.10564 8.38252 9.28411 8.2795 9.43591C8.17649 9.58771 8.03007 9.70602 7.85877 9.77589C7.68746 9.84575 7.49896 9.86403 7.3171 9.82842C7.13525 9.7928 6.9682 9.70489 6.83709 9.57579C6.70598 9.4467 6.61669 9.28222 6.58051 9.10316C6.54434 8.9241 6.56291 8.7385 6.63386 8.56983C6.70482 8.40116 6.82498 8.257 6.97915 8.15557C7.13332 8.05414 7.31458 8 7.5 8C7.74864 8 7.9871 8.09725 8.16291 8.27036C8.33873 8.44347 8.4375 8.67826 8.4375 8.92308ZM11.875 8.92308C11.875 9.10564 11.82 9.28411 11.717 9.43591C11.614 9.58771 11.4676 9.70602 11.2963 9.77589C11.125 9.84575 10.9365 9.86403 10.7546 9.82842C10.5727 9.7928 10.4057 9.70489 10.2746 9.57579C10.1435 9.4467 10.0542 9.28222 10.018 9.10316C9.98184 8.9241 10.0004 8.7385 10.0714 8.56983C10.1423 8.40116 10.2625 8.257 10.4167 8.15557C10.5708 8.05414 10.7521 8 10.9375 8C11.1861 8 11.4246 8.09725 11.6004 8.27036C11.7762 8.44347 11.875 8.67826 11.875 8.92308ZM5 12C5 12.1826 4.94502 12.361 4.842 12.5128C4.73899 12.6646 4.59257 12.7829 4.42127 12.8528C4.24996 12.9227 4.06146 12.941 3.8796 12.9053C3.69775 12.8697 3.5307 12.7818 3.39959 12.6527C3.26848 12.5236 3.17919 12.3591 3.14301 12.1801C3.10684 12.001 3.12541 11.8154 3.19636 11.6468C3.26732 11.4781 3.38748 11.3339 3.54165 11.2325C3.69582 11.1311 3.87708 11.0769 4.0625 11.0769C4.31114 11.0769 4.5496 11.1742 4.72541 11.3473C4.90123 11.5204 5 11.7552 5 12ZM8.4375 12C8.4375 12.1826 8.38252 12.361 8.2795 12.5128C8.17649 12.6646 8.03007 12.7829 7.85877 12.8528C7.68746 12.9227 7.49896 12.941 7.3171 12.9053C7.13525 12.8697 6.9682 12.7818 6.83709 12.6527C6.70598 12.5236 6.61669 12.3591 6.58051 12.1801C6.54434 12.001 6.56291 11.8154 6.63386 11.6468C6.70482 11.4781 6.82498 11.3339 6.97915 11.2325C7.13332 11.1311 7.31458 11.0769 7.5 11.0769C7.74864 11.0769 7.9871 11.1742 8.16291 11.3473C8.33873 11.5204 8.4375 11.7552 8.4375 12ZM11.875 12C11.875 12.1826 11.82 12.361 11.717 12.5128C11.614 12.6646 11.4676 12.7829 11.2963 12.8528C11.125 12.9227 10.9365 12.941 10.7546 12.9053C10.5727 12.8697 10.4057 12.7818 10.2746 12.6527C10.1435 12.5236 10.0542 12.3591 10.018 12.1801C9.98184 12.001 10.0004 11.8154 10.0714 11.6468C10.1423 11.4781 10.2625 11.3339 10.4167 11.2325C10.5708 11.1311 10.7521 11.0769 10.9375 11.0769C11.1861 11.0769 11.4246 11.1742 11.6004 11.3473C11.7762 11.5204 11.875 11.7552 11.875 12Z" fill="#B8FF34"/>
</svg>
