<svg width="50" height="50" viewBox="0 0 50 50" fill="none" xmlns="http://www.w3.org/2000/svg">
<path fill-rule="evenodd" clip-rule="evenodd" d="M45.8327 25C45.8327 36.5052 36.5046 45.8333 24.9993 45.8333C13.4941 45.8333 4.16602 36.5052 4.16602 25C4.16602 13.4948 13.4941 4.16663 24.9993 4.16663C36.5046 4.16663 45.8327 13.4948 45.8327 25Z" fill="url(#paint0_linear_3023_1384)"/>
<path fill-rule="evenodd" clip-rule="evenodd" d="M30.4112 28.0854C29.5415 29.0385 28.3206 29.5208 27.7487 29.5208C27.0873 29.5208 26.7258 29.1156 26.6519 28.5062C26.6269 28.2729 26.6352 28.0375 26.6769 27.8052C26.8956 26.4406 27.3977 25.5927 27.3665 25.3344C27.3571 25.2604 27.3154 25.224 27.2612 25.224C26.8383 25.224 25.355 26.7552 25.13 27.7688L24.955 28.5802C24.8404 29.1521 24.28 29.5198 23.8946 29.5198C23.7102 29.5198 23.5706 29.4281 23.5467 29.225C23.5394 29.1323 23.5467 29.0396 23.5685 28.9479L23.6508 28.5208C22.8508 29.1187 21.9883 29.5229 21.5842 29.5229C21.0321 29.5229 20.7227 29.2281 20.6123 28.7844C20.2477 29.2646 19.7654 29.5229 19.2519 29.5229C18.5956 29.5229 17.9633 29.0885 17.6602 28.4458C17.2279 28.9313 16.7154 29.4063 16.1019 29.799C15.1967 30.3719 14.1894 30.8323 12.9956 30.8323C11.8935 30.8323 10.9581 30.2427 10.4404 29.7635C9.67271 29.0448 9.2675 27.974 9.14771 26.9969C8.77062 23.9167 10.6456 19.8781 13.5508 18.1083C14.2175 17.7021 14.9644 17.5 15.6425 17.5C17.0383 17.5 18.08 18.4979 18.2258 19.6917C18.3571 20.7667 17.9279 21.6958 16.7352 22.2969C16.1269 22.6052 15.8248 22.5906 15.73 22.4437C15.6665 22.3458 15.7029 22.1792 15.8248 22.0781C16.9456 21.1417 16.9665 20.3729 16.8352 19.2896C16.7498 18.5927 16.2915 18.1458 15.7769 18.1458C13.5737 18.1458 10.4133 23.0885 10.8529 26.6844C11.0248 28.0865 11.8842 29.7094 13.6467 29.7094C14.2342 29.7094 14.8571 29.5438 15.4112 29.2667C16.3779 28.7729 16.9248 28.3813 17.4737 27.7417C17.3383 26.0792 18.7654 23.9917 20.8883 23.9917C21.8071 23.9917 22.5675 24.3604 22.6571 25.0979C22.7696 26.0198 21.9842 26.2042 21.6904 26.2042C21.4331 26.2042 21.0206 26.1302 20.9915 25.8906C20.9602 25.6323 21.5477 25.7802 21.4748 25.1896C21.43 24.8208 21.0467 24.6917 20.68 24.6917C19.3581 24.6917 18.6279 26.5354 18.7685 27.6802C18.8321 28.1969 19.0967 28.7125 19.5748 28.7125C19.9602 28.7125 20.5165 28.1594 20.73 27.3479C20.8654 26.7948 21.3883 26.426 21.7748 26.426C21.9769 26.426 22.1165 26.5177 22.1415 26.7208C22.1498 26.7948 22.1435 26.8875 22.1196 26.9979C22.0758 27.2375 21.8915 28.0354 21.9008 28.2C21.9071 28.3438 21.9904 28.5417 22.2404 28.5417C22.4383 28.5417 23.1675 28.1479 23.8425 27.5437C24.054 26.449 24.3154 25.0948 24.3362 24.9875C24.4185 24.5438 24.5779 24.0865 25.4779 24.0865C25.6623 24.0865 25.8019 24.1781 25.829 24.4C25.8373 24.4729 25.831 24.5667 25.8071 24.6771L25.555 25.8156C26.3446 24.7635 27.5717 23.9906 28.3071 23.9906C28.6196 23.9906 28.8602 24.1552 28.9008 24.4885C28.9237 24.674 28.8696 24.9865 28.7477 25.3365C28.4862 26.0552 28.1925 27.1354 27.9977 28.0656C27.956 28.2635 28.0248 28.5615 28.3862 28.5615C28.6748 28.5615 29.6008 28.2083 30.3498 27.2198C30.3446 27.0802 30.3425 26.9385 30.3425 26.7948C30.3425 26.0198 30.3977 25.3927 30.5446 24.9333C30.6915 24.4531 31.2977 23.9938 31.7008 23.9938C31.9029 23.9938 32.0498 24.1042 32.0498 24.325C32.0498 24.399 32.031 24.4917 31.9946 24.5833C31.7196 25.3948 31.5727 26.1521 31.5727 26.9073C31.5727 27.3313 31.6644 28.0135 31.7571 28.3635C31.7758 28.4375 31.7925 28.5115 31.8665 28.5115C31.9946 28.5115 32.8581 27.6635 33.4821 26.6302C32.93 26.2792 32.6185 25.6344 32.6185 24.8406C32.6185 23.5135 33.4081 22.8302 34.179 22.8302C34.7852 22.8302 35.3352 23.2729 35.3352 24.1573C35.3352 24.7115 35.1144 25.3385 34.804 25.9469C34.804 25.9469 34.9321 25.9656 34.9873 25.9656C35.4644 25.9656 35.8321 25.7437 36.0352 25.5042C36.1269 25.4 36.2123 25.3188 36.2935 25.2708C36.9081 24.5281 37.8092 23.9917 38.8665 23.9917C39.7665 23.9917 40.5435 24.3427 40.6331 25.0802C40.7477 26.0198 39.9446 26.2052 39.6685 26.2052C39.3935 26.2052 38.98 26.1313 38.9508 25.8917C38.9217 25.6521 39.5248 25.7812 39.455 25.2104C39.4102 24.8417 39.0248 24.6937 38.6571 24.6937C37.4258 24.6937 36.58 26.3354 36.7425 27.6625C36.8071 28.1979 37.054 28.7146 37.5321 28.7146C37.9175 28.7146 38.4935 28.1604 38.706 27.35C38.8425 26.8146 39.3644 26.4281 39.7498 26.4281C39.9331 26.4281 40.0915 26.5198 40.1185 26.7417C40.1321 26.8521 40.0873 27.0927 39.8821 27.9583C39.7977 28.3271 39.781 28.6406 39.8133 28.899C39.879 29.4344 40.1237 29.7844 40.3508 29.9875C40.4331 30.0604 40.4821 30.1521 40.4883 30.2094C40.506 30.3573 40.3935 30.4865 40.2102 30.4865C40.155 30.4865 40.0821 30.4865 40.0217 30.45C39.0758 30.0625 38.6831 29.4177 38.5727 28.8083C38.2081 29.2688 37.7248 29.5271 37.229 29.5271C36.3842 29.5271 35.5592 28.7885 35.4425 27.8302C35.3946 27.4365 35.4415 27.0125 35.5706 26.5969C35.2279 26.8083 34.8592 26.926 34.5279 26.926C34.4175 26.926 34.3258 26.926 34.2165 26.9073C33.3904 28.1052 32.5269 28.9354 31.8654 29.3052C31.5904 29.4531 31.3342 29.5271 31.1498 29.5271C31.0019 29.5271 30.8373 29.4906 30.7644 29.3615C30.5915 29.0729 30.4779 28.6188 30.4112 28.0854ZM33.404 24.1573C33.404 24.674 33.6602 25.2094 33.9915 25.5594C34.1206 25.2083 34.1935 24.8583 34.1935 24.5073C34.1935 23.8427 33.9362 23.5479 33.7342 23.5479C33.4956 23.5479 33.404 23.8813 33.404 24.1573Z" fill="white"/>
<defs>
<linearGradient id="paint0_linear_3023_1384" x1="39.8566" y1="41.3854" x2="10.5723" y2="9.0885" gradientUnits="userSpaceOnUse">
<stop stop-color="#823AF3"/>
<stop offset="0.36" stop-color="#4B66E1"/>
<stop offset="0.906" stop-color="#01F1C4"/>
</linearGradient>
</defs>
</svg>
