<svg width="16" height="16" viewBox="0 0 16 16" fill="none" xmlns="http://www.w3.org/2000/svg">
<path d="M11.5919 5.59333C11.6747 5.67591 11.7405 5.77404 11.7853 5.88209C11.8302 5.99013 11.8533 6.10597 11.8533 6.22296C11.8533 6.33995 11.8302 6.45579 11.7853 6.56384C11.7405 6.67188 11.6747 6.77001 11.5919 6.85259L7.44371 11.0007C7.36112 11.0836 7.263 11.1494 7.15495 11.1942C7.04691 11.2391 6.93107 11.2622 6.81408 11.2622C6.69709 11.2622 6.58125 11.2391 6.4732 11.1942C6.36515 11.1494 6.26703 11.0836 6.18445 11.0007L4.40667 9.22296C4.32399 9.14028 4.2584 9.04212 4.21365 8.93408C4.1689 8.82605 4.14587 8.71026 4.14587 8.59333C4.14587 8.4764 4.1689 8.36061 4.21365 8.25258C4.2584 8.14455 4.32399 8.04639 4.40667 7.9637C4.48935 7.88102 4.58751 7.81543 4.69555 7.77068C4.80358 7.72593 4.91937 7.7029 5.0363 7.7029C5.15323 7.7029 5.26902 7.72593 5.37705 7.77068C5.48508 7.81543 5.58324 7.88102 5.66593 7.9637L6.81482 9.11111L10.3341 5.59111C10.4168 5.50861 10.5149 5.44322 10.6229 5.39868C10.7309 5.35414 10.8466 5.33132 10.9634 5.33152C11.0802 5.33173 11.1959 5.35496 11.3037 5.39988C11.4115 5.4448 11.5094 5.51054 11.5919 5.59333ZM16 8C16 9.58225 15.5308 11.129 14.6518 12.4446C13.7727 13.7602 12.5233 14.7855 11.0615 15.391C9.59966 15.9965 7.99113 16.155 6.43928 15.8463C4.88743 15.5376 3.46197 14.7757 2.34315 13.6569C1.22433 12.538 0.462403 11.1126 0.153721 9.56072C-0.15496 8.00887 0.00346629 6.40034 0.608967 4.93853C1.21447 3.47672 2.23985 2.22729 3.55544 1.34824C4.87103 0.469192 6.41775 0 8 0C10.121 0.00235276 12.1545 0.845963 13.6543 2.34574C15.154 3.84552 15.9976 5.87899 16 8ZM14.2222 8C14.2222 6.76936 13.8573 5.56636 13.1736 4.54312C12.4899 3.51988 11.5181 2.72236 10.3811 2.25142C9.24418 1.78047 7.9931 1.65725 6.78611 1.89734C5.57911 2.13742 4.47042 2.73003 3.60023 3.60022C2.73003 4.47042 2.13742 5.57911 1.89734 6.7861C1.65725 7.9931 1.78047 9.24418 2.25142 10.3811C2.72236 11.5181 3.51988 12.4899 4.54312 13.1736C5.56636 13.8573 6.76936 14.2222 8 14.2222C9.6497 14.2205 11.2313 13.5643 12.3978 12.3978C13.5643 11.2313 14.2205 9.64969 14.2222 8Z" fill="white"/>
</svg>
