<svg width="169" height="40" viewBox="0 0 169 40" fill="none" xmlns="http://www.w3.org/2000/svg">
<g opacity="0.9" clip-path="url(#clip0_3023_1706)">
<path fill-rule="evenodd" clip-rule="evenodd" d="M10.0148 2.5V40H0V2.5H10.0148Z" fill="white"/>
<path fill-rule="evenodd" clip-rule="evenodd" d="M15.0215 2.5H36.303C43.2168 2.5 48.8215 8.09644 48.8215 15C48.8215 21.9036 43.2168 27.5 36.303 27.5H25.0363V40H15.0215V2.5ZM25.0363 17.5H36.303C37.6858 17.5 38.8067 16.3807 38.8067 15C38.8067 13.6193 37.6858 12.5 36.303 12.5H25.0363V17.5Z" fill="white"/>
<path fill-rule="evenodd" clip-rule="evenodd" d="M86.3781 2.5V21.875C86.3781 26.3623 90.0211 30 94.5151 30C99.0091 30 102.652 26.3623 102.652 21.875V2.5H112.667V21.875C112.667 31.8852 104.54 40 94.5151 40C84.4901 40 76.3633 31.8852 76.3633 21.875V2.5H86.3781Z" fill="white"/>
<path fill-rule="evenodd" clip-rule="evenodd" d="M52.5773 20C52.5773 10.335 60.4239 2.5 70.1032 2.5H72.6069V12.5H70.1032C65.9549 12.5 62.5921 15.8579 62.5921 20V21.25C62.5921 31.6053 54.185 40 43.8143 40H42.5625V30H43.8143C48.654 30 52.5773 26.0825 52.5773 21.25V20Z" fill="white"/>
<path d="M168.999 3.75C168.999 5.82107 167.318 7.5 165.243 7.5C163.169 7.5 161.488 5.82107 161.488 3.75C161.488 1.67893 163.169 0 165.243 0C167.318 0 168.999 1.67893 168.999 3.75Z" fill="white"/>
<path d="M123.419 39.9999L128.198 20.018L131.751 32.0392C133.869 39.209 144.04 39.209 146.159 32.0392L149.711 20.018L154.49 39.9999H164.786L157.272 8.57937C155.485 1.10732 144.94 0.830666 142.762 8.19879L138.955 21.0832L135.147 8.1988C132.97 0.830709 122.424 1.10728 120.637 8.57936L113.123 39.9999H123.419Z" fill="white"/>
</g>
<defs>
<clipPath id="clip0_3023_1706">
<rect width="169" height="40" fill="white"/>
</clipPath>
</defs>
</svg>
