<svg width="100" height="51" viewBox="0 0 100 51" fill="none" xmlns="http://www.w3.org/2000/svg">
<g opacity="0.9">
<path d="M2.58594 29.5166H5.41886V43.4073H2.58594V29.5166Z" fill="white"/>
<path d="M7.06077 38.6477C7.0589 37.65 7.35305 36.6741 7.906 35.8436C8.45895 35.0131 9.24584 34.3653 10.1671 33.9822C11.0883 33.5991 12.1025 33.498 13.0813 33.6915C14.0601 33.885 14.9595 34.3644 15.6656 35.0693C16.3718 35.7741 16.853 36.6726 17.0483 37.651C17.2437 38.6294 17.1444 39.6439 16.763 40.5659C16.3816 41.4878 15.7353 42.2759 14.9058 42.8304C14.0764 43.385 13.1011 43.6808 12.1034 43.6808C11.4398 43.6884 10.7815 43.5635 10.1669 43.3133C9.55232 43.0632 8.99383 42.6929 8.52419 42.2241C8.05455 41.7554 7.6832 41.1976 7.43191 40.5834C7.18062 39.9693 7.05444 39.3112 7.06077 38.6477ZM14.2941 38.6477C14.283 38.217 14.1451 37.7992 13.8977 37.4465C13.6503 37.0937 13.3044 36.8217 12.9032 36.6645C12.502 36.5073 12.0634 36.472 11.6423 36.5628C11.2211 36.6536 10.8361 36.8667 10.5353 37.1752C10.2346 37.4837 10.0315 37.874 9.95144 38.2974C9.87139 38.7207 9.91797 39.1583 10.0853 39.5553C10.2527 39.9523 10.5334 40.2913 10.8923 40.5296C11.2513 40.7679 11.6725 40.8951 12.1034 40.8952C12.3981 40.9035 12.6914 40.8505 12.9647 40.7397C13.238 40.6289 13.4854 40.4628 13.6913 40.2516C13.8971 40.0404 14.057 39.7889 14.1607 39.5129C14.2645 39.2368 14.3099 38.9422 14.2941 38.6477Z" fill="white"/>
<path d="M28.5355 33.8885V42.9349C28.5355 46.1361 26.0331 47.4865 23.5024 47.4865C22.6125 47.5527 21.7215 47.3727 20.927 46.9663C20.1325 46.5599 19.4652 45.9427 18.9981 45.1824L21.4344 43.7754C21.6277 44.165 21.9336 44.4877 22.3124 44.7015C22.6912 44.9153 23.1255 45.0105 23.5591 44.9746C23.8443 45.0222 24.1367 45.0036 24.4137 44.9202C24.6907 44.8369 24.9448 44.6911 25.1565 44.494C25.3681 44.2969 25.5317 44.0538 25.6346 43.7835C25.7375 43.5132 25.7769 43.2229 25.7498 42.9349V42.0567C25.4168 42.4665 24.9918 42.792 24.5095 43.0069C24.0272 43.2218 23.501 43.3201 22.9736 43.2938C21.6913 43.2938 20.4616 42.7844 19.5548 41.8777C18.6481 40.971 18.1387 39.7412 18.1387 38.4589C18.1387 37.1766 18.6481 35.9469 19.5548 35.0402C20.4616 34.1335 21.6913 33.6241 22.9736 33.6241C23.5007 33.6 24.0261 33.6993 24.5081 33.914C24.9901 34.1288 25.4153 34.4531 25.7498 34.8611V33.9168L28.5355 33.8885ZM25.7498 38.4589C25.7687 37.9997 25.6497 37.5453 25.4083 37.1541C25.1668 36.763 24.8139 36.453 24.3949 36.2641C23.9759 36.0751 23.5099 36.0158 23.0569 36.0938C22.6039 36.1717 22.1846 36.3834 21.8529 36.7015C21.5211 37.0197 21.2921 37.4298 21.1953 37.8791C21.0984 38.3284 21.1382 38.7965 21.3095 39.223C21.4808 39.6496 21.7757 40.0151 22.1564 40.2727C22.5371 40.5304 22.9861 40.6682 23.4457 40.6686C23.7458 40.6898 24.0469 40.648 24.3297 40.5457C24.6126 40.4434 24.8709 40.2831 25.088 40.0749C25.305 39.8667 25.4761 39.6153 25.5901 39.337C25.7041 39.0587 25.7585 38.7596 25.7498 38.4589Z" fill="white"/>
<path d="M30.1682 38.6477C30.1663 37.65 30.4605 36.6741 31.0134 35.8436C31.5664 35.0131 32.3533 34.3653 33.2745 33.9822C34.1957 33.5991 35.2099 33.498 36.1887 33.6915C37.1675 33.885 38.0669 34.3644 38.7731 35.0693C39.4792 35.7741 39.9604 36.6726 40.1558 37.651C40.3511 38.6294 40.2518 39.6439 39.8704 40.5659C39.489 41.4878 38.8427 42.2759 38.0133 42.8304C37.1838 43.385 36.2085 43.6808 35.2108 43.6808C34.5473 43.6884 33.8889 43.5635 33.2743 43.3133C32.6597 43.0632 32.1012 42.6929 31.6316 42.2241C31.162 41.7554 30.7906 41.1976 30.5393 40.5834C30.288 39.9693 30.1618 39.3112 30.1682 38.6477ZM37.4016 38.6477C37.3904 38.217 37.2525 37.7992 37.0051 37.4465C36.7577 37.0937 36.4118 36.8217 36.0106 36.6645C35.6095 36.5073 35.1709 36.472 34.7497 36.5628C34.3285 36.6536 33.9435 36.8667 33.6427 37.1752C33.342 37.4837 33.1389 37.874 33.0588 38.2974C32.9788 38.7207 33.0254 39.1583 33.1927 39.5553C33.3601 39.9523 33.6408 40.2913 33.9997 40.5296C34.3587 40.7679 34.7799 40.8951 35.2108 40.8952C35.504 40.9008 35.7952 40.846 36.0663 40.734C36.3373 40.622 36.5824 40.4553 36.7862 40.2444C36.99 40.0336 37.1481 39.7829 37.2508 39.5082C37.3534 39.2335 37.3983 38.9405 37.3827 38.6477H37.4016Z" fill="white"/>
<path d="M41.5664 31.3392C41.5664 30.9993 41.6672 30.667 41.856 30.3844C42.0449 30.1018 42.3133 29.8815 42.6273 29.7514C42.9414 29.6213 43.2869 29.5873 43.6203 29.6536C43.9537 29.7199 44.2599 29.8836 44.5003 30.1239C44.7407 30.3643 44.9043 30.6705 44.9706 31.0039C45.037 31.3373 45.0029 31.6829 44.8729 31.9969C44.7428 32.3109 44.5225 32.5794 44.2399 32.7682C43.9572 32.957 43.625 33.0578 43.285 33.0578C42.83 33.0554 42.3943 32.8735 42.0725 32.5517C41.7507 32.23 41.5689 31.7943 41.5664 31.3392ZM41.8591 33.8888H44.692V43.4074H41.8591V33.8888Z" fill="white"/>
<path d="M57.0438 38.648C57.0781 39.2772 56.9877 39.907 56.7777 40.5011C56.5676 41.0952 56.2422 41.6419 55.82 42.1097C55.3978 42.5775 54.8873 42.9572 54.3178 43.2269C53.7483 43.4966 53.1311 43.651 52.5017 43.6812C51.9733 43.7065 51.4457 43.6157 50.9563 43.415C50.4668 43.2143 50.0273 42.9087 49.6688 42.5197V47.2412H46.8359V33.8887H49.6688V34.7858C50.0273 34.3968 50.4668 34.0912 50.9563 33.8905C51.4457 33.6898 51.9733 33.599 52.5017 33.6243C53.1303 33.6545 53.7467 33.8086 54.3155 34.0777C54.8844 34.3469 55.3945 34.7257 55.8165 35.1925C56.2386 35.6593 56.5642 36.2048 56.7748 36.7978C56.9855 37.3908 57.0769 38.0196 57.0438 38.648ZM54.2109 38.648C54.1997 38.2048 54.0587 37.7746 53.8054 37.4107C53.5521 37.0469 53.1977 36.7652 52.786 36.6008C52.3743 36.4363 51.9233 36.3962 51.4891 36.4855C51.0548 36.5747 50.6562 36.7894 50.3427 37.1029C50.0292 37.4164 49.8146 37.8149 49.7253 38.2492C49.6361 38.6835 49.6762 39.1344 49.8406 39.5461C50.0051 39.9578 50.2867 40.3123 50.6506 40.5655C51.0145 40.8188 51.4447 40.9598 51.8879 40.971C52.1972 40.9907 52.5071 40.9439 52.7969 40.8339C53.0866 40.7238 53.3494 40.553 53.5677 40.333C53.7859 40.1129 53.9546 39.8487 54.0623 39.5581C54.1699 39.2675 54.2142 38.9572 54.192 38.648H54.2109Z" fill="white"/>
<path d="M65.8635 40.5556C65.8635 42.7464 63.9749 43.6812 61.8974 43.6812C61.0675 43.7547 60.2346 43.5781 59.5059 43.1742C58.7773 42.7703 58.1861 42.1576 57.8086 41.4149L60.2827 40.0079C60.3831 40.3514 60.5981 40.6502 60.8918 40.8546C61.1856 41.059 61.5404 41.1568 61.8974 41.1316C62.5868 41.1316 62.9267 40.9144 62.9267 40.5367C62.9267 39.4885 58.2052 40.0457 58.2052 36.7595C58.2052 34.682 59.9616 33.6338 61.9824 33.6338C62.7281 33.6112 63.4663 33.7883 64.1205 34.147C64.7747 34.5056 65.321 35.0327 65.703 35.6735L63.2195 36.9767C63.1098 36.7273 62.93 36.5151 62.702 36.3659C62.474 36.2167 62.2077 36.1369 61.9352 36.1362C61.4442 36.1362 61.142 36.3251 61.142 36.6745C61.1798 37.7604 65.8635 37.0333 65.8635 40.5556Z" fill="white"/>
<path d="M76.2884 33.8887V43.4073H73.4554V42.5197C73.1259 42.9141 72.7077 43.2249 72.235 43.4268C71.7624 43.6287 71.2486 43.7158 70.7358 43.6812C68.8472 43.6812 67.1758 42.3119 67.1758 39.734V33.8887H70.0087V39.3185C69.9838 39.5499 70.0108 39.7839 70.0876 40.0036C70.1644 40.2233 70.2891 40.4231 70.4528 40.5886C70.6164 40.7541 70.8149 40.881 71.0337 40.9602C71.2525 41.0395 71.4863 41.0689 71.7179 41.0466C72.7567 41.0466 73.4838 40.4422 73.4838 39.0919V33.8887H76.2884Z" fill="white"/>
<path d="M92.663 37.5711V43.4069H89.83V37.8167C89.83 36.8724 89.3673 36.2491 88.4608 36.2491C87.5543 36.2491 86.9688 36.9196 86.9688 38.0433V43.4069H84.1359V37.8167C84.1359 36.8724 83.6826 36.2491 82.7666 36.2491C81.8507 36.2491 81.2841 36.9196 81.2841 38.0433V43.4069H78.4512V33.8884H81.2841V34.7666C81.5802 34.3787 81.9685 34.071 82.4138 33.8715C82.8591 33.6719 83.3472 33.5868 83.8337 33.624C84.3223 33.6002 84.8088 33.7035 85.2456 33.9235C85.6825 34.1436 86.0549 34.4731 86.3267 34.8799C86.6427 34.4546 87.0614 34.1163 87.5436 33.8967C88.0258 33.6771 88.5558 33.5832 89.084 33.624C91.2371 33.624 92.663 35.1915 92.663 37.5711Z" fill="white"/>
<path d="M95.0801 33.8321C96.2483 33.8321 97.1953 32.885 97.1953 31.7168C97.1953 30.5486 96.2483 29.6016 95.0801 29.6016C93.9119 29.6016 92.9648 30.5486 92.9648 31.7168C92.9648 32.885 93.9119 33.8321 95.0801 33.8321Z" fill="white"/>
<path d="M34.6441 22.3115C40.1149 22.3115 44.5498 17.8765 44.5498 12.4057C44.5498 6.93496 40.1149 2.5 34.6441 2.5C29.1733 2.5 24.7383 6.93496 24.7383 12.4057C24.7383 17.8765 29.1733 22.3115 34.6441 22.3115Z" fill="white"/>
<path d="M56.7886 22.3115C62.2594 22.3115 66.6943 17.8765 66.6943 12.4057C66.6943 6.93496 62.2594 2.5 56.7886 2.5C51.3178 2.5 46.8828 6.93496 46.8828 12.4057C46.8828 17.8765 51.3178 22.3115 56.7886 22.3115Z" fill="white"/>
<path d="M22.4056 2.5H2.60352V22.302H22.4056V2.5Z" fill="white"/>
</g>
</svg>
