<svg width="14" height="17" viewBox="0 0 14 17" fill="none" xmlns="http://www.w3.org/2000/svg">
<path d="M6.75 2.8125C5.41498 2.8125 4.10994 3.20838 2.9999 3.95008C1.88987 4.69178 1.02471 5.74599 0.513816 6.97939C0.00292468 8.21279 -0.130748 9.56999 0.129702 10.8794C0.390153 12.1887 1.03303 13.3915 1.97703 14.3355C2.92104 15.2795 4.12377 15.9223 5.43314 16.1828C6.74252 16.4433 8.09972 16.3096 9.33312 15.7987C10.5665 15.2878 11.6207 14.4226 12.3624 13.3126C13.1041 12.2026 13.5 10.8975 13.5 9.5625C13.498 7.77292 12.7861 6.05722 11.5207 4.79179C10.2553 3.52636 8.53959 2.81455 6.75 2.8125ZM6.75 14.625C5.74874 14.625 4.76995 14.3281 3.93743 13.7718C3.1049 13.2155 2.45603 12.4249 2.07286 11.4998C1.68969 10.5748 1.58944 9.55688 1.78478 8.57486C1.98012 7.59283 2.46227 6.69077 3.17027 5.98277C3.87828 5.27477 4.78033 4.79261 5.76236 4.59727C6.74439 4.40194 7.76229 4.50219 8.68734 4.88536C9.61239 5.26853 10.403 5.9174 10.9593 6.74993C11.5156 7.58245 11.8125 8.56123 11.8125 9.5625C11.811 10.9047 11.2772 12.1915 10.3281 13.1406C9.37901 14.0897 8.09221 14.6235 6.75 14.625ZM9.31571 6.71555C9.39437 6.79393 9.45678 6.88708 9.49936 6.98964C9.54195 7.0922 9.56387 7.20215 9.56387 7.3132C9.56387 7.42425 9.54195 7.53421 9.49936 7.63677C9.45678 7.73933 9.39437 7.83247 9.31571 7.91086L7.34696 9.87961C7.18845 10.0381 6.97346 10.1272 6.7493 10.1272C6.52514 10.1272 6.31015 10.0381 6.15164 9.87961C5.99314 9.7211 5.90409 9.50612 5.90409 9.28195C5.90409 9.05779 5.99314 8.8428 6.15164 8.6843L8.12039 6.71555C8.19878 6.63689 8.29193 6.57447 8.39448 6.53189C8.49704 6.4893 8.607 6.46738 8.71805 6.46738C8.8291 6.46738 8.93906 6.4893 9.04162 6.53189C9.14418 6.57447 9.23732 6.63689 9.31571 6.71555ZM4.21875 0.84375C4.21875 0.619974 4.30765 0.405362 4.46588 0.247129C4.62412 0.0888948 4.83873 0 5.0625 0H8.4375C8.66128 3.33453e-09 8.87589 0.0888948 9.03412 0.247129C9.19236 0.405362 9.28125 0.619974 9.28125 0.84375C9.28125 1.06753 9.19236 1.28214 9.03412 1.44037C8.87589 1.59861 8.66128 1.6875 8.4375 1.6875H5.0625C4.83873 1.6875 4.62412 1.59861 4.46588 1.44037C4.30765 1.28214 4.21875 1.06753 4.21875 0.84375Z" fill="#B8FF34"/>
</svg>
