<svg width="50" height="50" viewBox="0 0 50 50" fill="none" xmlns="http://www.w3.org/2000/svg">
<path d="M24.8161 25C24.8161 23.0354 25.5966 21.1513 26.9857 19.7621C28.3749 18.373 30.259 17.5925 32.2236 17.5925C34.1882 17.5925 36.0723 18.373 37.4615 19.7621C38.8507 21.1513 39.6311 23.0354 39.6311 25C39.6311 26.9648 38.8506 28.8492 37.4613 30.2385C36.0719 31.6278 34.1876 32.4084 32.2228 32.4084C30.258 32.4084 28.3736 31.6278 26.9843 30.2385C25.595 28.8492 24.8145 26.9648 24.8145 25H24.8161Z" fill="#1ABCFE"/>
<path d="M10 39.815C9.99978 38.8422 10.1912 37.8789 10.5633 36.9801C10.9354 36.0813 11.481 35.2646 12.1688 34.5766C12.8566 33.8887 13.6731 33.343 14.5719 32.9706C15.4706 32.5983 16.4339 32.4067 17.4067 32.4067H24.815V39.815C24.815 41.7796 24.0346 43.6637 22.6454 45.0529C21.2562 46.4421 19.3721 47.2225 17.4075 47.2225C15.4429 47.2225 13.5588 46.4421 12.1696 45.0529C10.7804 43.6637 10 41.7796 10 39.815Z" fill="#0ACF83"/>
<path d="M24.8164 2.77834V17.5917H32.2231C34.1877 17.5917 36.0718 16.8112 37.461 15.4221C38.8501 14.0329 39.6306 12.1488 39.6306 10.1842C39.6306 8.21958 38.8501 6.33545 37.461 4.94628C36.0718 3.5571 34.1877 2.77667 32.2231 2.77667H24.8164V2.77834Z" fill="#FF7262"/>
<path d="M10 10.1833C9.99978 11.1561 10.1912 12.1194 10.5633 13.0182C10.9354 13.9171 11.481 14.7338 12.1688 15.4217C12.8566 16.1097 13.6731 16.6554 14.5719 17.0277C15.4706 17.4 16.4339 17.5917 17.4067 17.5917H24.815V2.77832H17.4067C15.4426 2.77832 13.5589 3.55843 12.17 4.94709C10.781 6.33575 10.0004 8.21924 10 10.1833Z" fill="#F24E1E"/>
<path d="M10 25C10 26.9644 10.7803 28.8483 12.1694 30.2373C13.5584 31.6263 15.4423 32.4067 17.4067 32.4067H24.815V17.5917H17.4067C16.4339 17.5917 15.4706 17.7833 14.5719 18.1556C13.6731 18.528 12.8566 19.0737 12.1688 19.7616C11.481 20.4496 10.9354 21.2663 10.5633 22.1651C10.1912 23.0639 9.99978 24.0272 10 25Z" fill="#A259FF"/>
</svg>
