<svg width="50" height="50" viewBox="0 0 50 50" fill="none" xmlns="http://www.w3.org/2000/svg">
<path d="M45.4275 20.9198H43.7494V20.8334H24.9994V29.1667H36.7733C35.0556 34.0177 30.44 37.5 24.9994 37.5C18.0962 37.5 12.4993 31.9031 12.4993 25C12.4993 18.0969 18.0962 12.5 24.9994 12.5C28.1858 12.5 31.0848 13.7021 33.2921 15.6656L39.1848 9.77294C35.4639 6.30523 30.4869 4.16669 24.9994 4.16669C13.4941 4.16669 4.16602 13.4948 4.16602 25C4.16602 36.5052 13.4941 45.8334 24.9994 45.8334C36.5046 45.8334 45.8327 36.5052 45.8327 25C45.8327 23.6031 45.6889 22.2396 45.4275 20.9198Z" fill="#FBC02D"/>
<path d="M6.56836 15.3031L13.4132 20.3229C15.2652 15.7375 19.7507 12.5 24.9996 12.5C28.1861 12.5 31.085 13.7021 33.2923 15.6656L39.185 9.77294C35.4642 6.30523 30.4871 4.16669 24.9996 4.16669C16.9975 4.16669 10.0579 8.68439 6.56836 15.3031Z" fill="#E53935"/>
<path d="M25 45.8333C30.3812 45.8333 35.2708 43.7739 38.9677 40.425L32.5198 34.9687C30.4281 36.5531 27.8281 37.5 25 37.5C19.5812 37.5 14.9802 34.0448 13.2469 29.2229L6.45312 34.4573C9.90104 41.2041 16.9031 45.8333 25 45.8333Z" fill="#4CAF50"/>
<path d="M45.4281 20.9198L45.4115 20.8333H43.75H25V29.1666H36.774C35.949 31.4969 34.45 33.5062 32.5167 34.9698L32.5198 34.9677L38.9677 40.4239C38.5115 40.8385 45.8333 35.4166 45.8333 25C45.8333 23.6031 45.6896 22.2396 45.4281 20.9198Z" fill="#1565C0"/>
</svg>
