<svg width="50" height="50" viewBox="0 0 50 50" fill="none" xmlns="http://www.w3.org/2000/svg">
<path d="M48.9577 30.5833L46.6733 32.3156L44.3952 30.7292C44.3952 30.5625 44.3952 30.3854 44.3848 30.2083C44.3848 30.0417 44.3848 29.8646 44.3743 29.6875C44.2285 25.5833 43.1868 21.1875 41.1035 17.9688C39.4993 15.5 37.4473 14.3229 35.1556 14.3229C32.7493 14.3229 30.791 15.7604 28.6243 18.8854C28.5618 18.9792 28.4889 19.0729 28.4264 19.1771C28.3848 19.2292 28.3535 19.2813 28.3118 19.3438C28.2077 19.5 28.1035 19.6563 27.9993 19.8229C27.0618 21.2813 26.0827 22.9792 25.0202 24.8542C24.9264 25.0313 24.8223 25.2083 24.7285 25.3854C24.6973 25.4271 24.666 25.4792 24.6452 25.5208L24.4264 25.9063L23.1348 28.1875C20.1035 33.5521 19.3327 34.7813 17.8223 36.7917C15.166 40.3229 12.8952 41.6667 9.9056 41.6667C6.36393 41.6667 4.11393 40.1354 2.72852 37.8229C1.5931 35.9479 1.04102 33.4792 1.04102 30.6667L6.2181 30.8438C6.2181 32.6771 6.61393 34.0729 7.14518 34.9271C7.83268 36.0313 8.8431 36.4583 9.89518 36.4583C11.2389 36.4583 12.4889 36.1771 14.8639 32.8854C16.7702 30.25 19.0202 26.5625 20.5306 24.2396L21.9577 22.0625L22.2598 21.5833L22.5723 21.1146L23.0931 20.3125C23.8848 19.1042 24.7389 17.8229 25.6556 16.5938C25.7598 16.4479 25.8639 16.3021 25.9785 16.1563C26.0827 16.0104 26.1973 15.8646 26.3014 15.7292C27.2389 14.5313 28.2285 13.4167 29.291 12.5C31.2181 10.8229 33.291 9.89584 35.3848 9.89584C38.8952 9.89584 42.2389 11.9271 44.8014 15.7396C47.416 19.6354 48.7806 24.4896 48.9368 29.5417C48.9473 29.7083 48.9473 29.8854 48.9473 30.0625C48.9577 30.2396 48.9577 30.4063 48.9577 30.5833Z" fill="#0081FB"/>
<path d="M5.12305 16.1C7.49492 12.449 10.9199 9.89584 14.847 9.89584C17.122 9.89584 19.3824 10.5677 21.7439 12.4927C24.3262 14.5969 27.0793 18.0615 30.5137 23.7719L31.7449 25.8208C34.7178 30.7646 36.4085 33.3073 37.3991 34.5073C38.672 36.0479 39.4668 36.4583 40.6251 36.4583C43.5626 36.4583 44.3928 33.8125 44.3928 30.7281L48.9585 30.5854C48.9585 33.8094 48.322 36.1781 47.2387 38.049C46.1928 39.8583 44.1533 41.6667 40.722 41.6667C38.5887 41.6667 36.6991 41.2042 34.6095 39.2365C33.0033 37.7261 31.1251 35.0427 29.6803 32.6313L25.3824 25.4656C23.2262 21.8698 21.248 19.1875 20.1033 17.974C18.872 16.6677 17.3512 15.1052 14.8251 15.1052C12.7803 15.1052 10.9824 16.524 9.5293 18.7146L5.12305 16.1Z" fill="url(#paint0_linear_3023_1484)"/>
<path d="M14.8431 15.1042C12.8025 15.1042 11.0066 16.5229 9.55664 18.7136C7.5056 21.8094 6.24935 26.4198 6.24935 30.8479C6.24935 32.674 6.24622 34.0479 6.77018 34.8958L2.77018 37.826C1.63893 35.9448 1.04102 33.5417 1.04102 30.7292C1.04102 25.6146 2.45247 20.2177 5.12227 16.1C7.49102 12.449 10.9441 9.89584 14.8639 9.89584L14.8431 15.1042Z" fill="url(#paint1_linear_3023_1484)"/>
<path opacity="0.05" d="M22.5736 21.1146L22.2611 21.5833L21.959 22.0625C22.6986 23.1354 23.5423 24.4271 24.4277 25.9062L24.6465 25.5208C24.6673 25.4792 24.6986 25.4271 24.7298 25.3854C24.8236 25.2083 24.9277 25.0312 25.0215 24.8542C24.1569 23.4375 23.3236 22.1771 22.5736 21.1146ZM25.9798 16.1562C25.8652 16.3021 25.7611 16.4479 25.6569 16.5937C26.4173 17.5417 27.1881 18.6146 28.0006 19.8229C28.1048 19.6562 28.209 19.5 28.3132 19.3437C28.3548 19.2812 28.3861 19.2292 28.4277 19.1771C28.4902 19.0729 28.5632 18.9792 28.6257 18.8854C27.834 17.7187 27.0632 16.6667 26.3027 15.7292C26.1986 15.8646 26.084 16.0104 25.9798 16.1562Z" fill="black"/>
<path opacity="0.07" d="M22.5723 21.1146L22.2598 21.5833C22.9993 22.6458 23.8327 23.9167 24.7285 25.3854C24.8223 25.2083 24.9264 25.0312 25.0202 24.8542C24.1556 23.4375 23.3223 22.1771 22.5723 21.1146ZM25.6556 16.5938C26.416 17.5417 27.1868 18.6146 27.9993 19.8229C28.1035 19.6563 28.2077 19.5 28.3118 19.3437C27.5098 18.1562 26.7285 17.0937 25.9785 16.1562C25.8639 16.3021 25.7598 16.4479 25.6556 16.5938Z" fill="black"/>
<defs>
<linearGradient id="paint0_linear_3023_1484" x1="44.0668" y1="25.7813" x2="14.097" y2="25.7813" gradientUnits="userSpaceOnUse">
<stop stop-color="#0081FB"/>
<stop offset="0.995" stop-color="#0064E1"/>
</linearGradient>
<linearGradient id="paint1_linear_3023_1484" x1="7.95247" y1="34.2396" x2="7.95247" y2="13.5542" gradientUnits="userSpaceOnUse">
<stop stop-color="#0081FB"/>
<stop offset="0.995" stop-color="#0064E1"/>
</linearGradient>
</defs>
</svg>
