<svg width="50" height="50" viewBox="0 0 50 50" fill="none" xmlns="http://www.w3.org/2000/svg">
<path d="M6.56867 4.69331L31.217 2.87831C34.2437 2.61998 35.022 2.79331 36.9237 4.17498L44.7903 9.70498C46.0903 10.655 46.5237 10.915 46.5237 11.9516V42.2816C46.5237 44.1816 45.8303 45.3066 43.4087 45.4783L14.787 47.2066C12.9703 47.2933 12.1037 47.035 11.1537 45.8233L5.35867 38.3066C4.32034 36.9233 3.88867 35.8866 3.88867 34.6766V7.71664C3.88867 6.16331 4.58201 4.86664 6.56867 4.69331Z" fill="white"/>
<path fill-rule="evenodd" clip-rule="evenodd" d="M31.2167 2.87837L6.56672 4.69504C4.58005 4.8667 3.88672 6.16171 3.88672 7.71671V34.6767C3.88672 35.8867 4.32005 36.9234 5.35672 38.3067L11.1517 45.8234C12.1017 47.035 12.9684 47.2934 14.7851 47.2067L43.4067 45.4784C45.8284 45.3067 46.5201 44.1817 46.5201 42.2817V11.95C46.5201 10.9667 46.1317 10.6834 44.9867 9.8467L44.7901 9.70337L36.9234 4.17337C35.02 2.79004 34.2401 2.61837 31.215 2.8767L31.2167 2.87837ZM15.4334 11.4534C13.0967 11.6117 12.5667 11.6484 11.2384 10.57L7.86672 7.89171C7.52172 7.54504 7.69505 7.11337 8.55839 7.02671L32.2534 5.30004C34.2417 5.1267 35.2801 5.82004 36.0584 6.42337L40.1234 9.36171C40.295 9.44837 40.7267 9.9667 40.2084 9.9667L15.7367 11.4334L15.4367 11.4534H15.4334ZM12.7084 42.02V16.275C12.7084 15.1517 13.0534 14.6317 14.0917 14.545L42.195 12.9034C43.1484 12.8184 43.5801 13.4234 43.5801 14.545V40.1217C43.5801 41.245 43.4067 42.1967 41.8501 42.2834L14.9567 43.8384C13.4001 43.925 12.7067 43.4067 12.7067 42.0217L12.7084 42.02ZM39.2584 17.6534C39.43 18.4317 39.2584 19.21 38.4784 19.2984L37.1817 19.555V38.5667C36.0567 39.1717 35.0201 39.5167 34.1551 39.5167C32.7717 39.5167 32.4251 39.085 31.3884 37.79L22.9117 24.4834V37.3567L25.5951 37.9634C25.5951 37.9634 25.5951 39.5167 23.4284 39.5167L17.4634 39.8634C17.2917 39.5167 17.4634 38.6534 18.0701 38.48L19.6267 38.05V21.025L17.4651 20.8517C17.2917 20.0734 17.7234 18.9517 18.9351 18.865L25.3351 18.4317L34.1551 31.9134V19.9884L31.9051 19.73C31.7334 18.7784 32.425 18.0867 33.2884 18.0017L39.2584 17.6534Z" fill="#000008"/>
</svg>
