<svg width="10" height="11" viewBox="0 0 10 11" fill="none" xmlns="http://www.w3.org/2000/svg">
<path d="M5 1.28125C4.16561 1.28125 3.34996 1.52868 2.65619 1.99224C1.96242 2.4558 1.42169 3.11468 1.10239 3.88555C0.783078 4.65643 0.699533 5.50468 0.862314 6.32304C1.0251 7.14139 1.42689 7.8931 2.0169 8.48311C2.6069 9.07311 3.35861 9.47491 4.17696 9.63769C4.99532 9.80047 5.84357 9.71692 6.61445 9.39762C7.38532 9.07831 8.0442 8.53758 8.50776 7.84381C8.97133 7.15004 9.21875 6.33439 9.21875 5.5C9.21751 4.3815 8.77264 3.30916 7.98174 2.51826C7.19084 1.72736 6.1185 1.28249 5 1.28125ZM5 8.78125C4.35103 8.78125 3.71664 8.58881 3.17704 8.22826C2.63744 7.86771 2.21687 7.35525 1.96852 6.75568C1.72017 6.15611 1.65519 5.49636 1.7818 4.85986C1.90841 4.22336 2.22092 3.6387 2.67981 3.17981C3.1387 2.72091 3.72336 2.40841 4.35986 2.2818C4.99636 2.15519 5.65611 2.22017 6.25568 2.46852C6.85525 2.71687 7.36771 3.13744 7.72826 3.67704C8.08881 4.21663 8.28125 4.85103 8.28125 5.5C8.28032 6.36996 7.93432 7.20401 7.31917 7.81917C6.70402 8.43432 5.86996 8.78032 5 8.78125ZM6.1211 6.02422C6.36504 5.85218 6.54792 5.60698 6.64325 5.32411C6.73858 5.04124 6.74143 4.73537 6.65138 4.45077C6.56133 4.16617 6.38305 3.91761 6.14235 3.74106C5.90164 3.56452 5.61101 3.46914 5.3125 3.46875H4.0625C3.93818 3.46875 3.81895 3.51814 3.73105 3.60604C3.64314 3.69395 3.59375 3.81318 3.59375 3.9375V7.0625C3.59375 7.18682 3.64314 7.30605 3.73105 7.39396C3.81895 7.48186 3.93818 7.53125 4.0625 7.53125C4.18682 7.53125 4.30605 7.48186 4.39396 7.39396C4.48187 7.30605 4.53125 7.18682 4.53125 7.0625V6.28125H5.16563L5.85938 7.32266C5.92837 7.42626 6.0357 7.4982 6.15775 7.52267C6.27979 7.54714 6.40656 7.52212 6.51016 7.45312C6.61376 7.38413 6.68571 7.2768 6.71017 7.15476C6.73464 7.03271 6.70962 6.90594 6.64063 6.80234L6.1211 6.02422ZM4.53125 4.40625H5.3125C5.43682 4.40625 5.55605 4.45564 5.64396 4.54354C5.73187 4.63145 5.78125 4.75068 5.78125 4.875C5.78125 4.99932 5.73187 5.11855 5.64396 5.20646C5.55605 5.29436 5.43682 5.34375 5.3125 5.34375H4.53125V4.40625Z" fill="white"/>
</svg>
