<svg width="16" height="16" viewBox="0 0 16 16" fill="none" xmlns="http://www.w3.org/2000/svg">
<path d="M14.25 7.99952C14.2501 9.64271 13.6032 11.2199 12.4491 12.3896C11.2951 13.5593 9.7268 14.2275 8.08375 14.2495H8C6.40442 14.2529 4.86872 13.6421 3.71125 12.5439C3.56662 12.4073 3.48218 12.2189 3.4765 12.02C3.47081 11.8212 3.54435 11.6282 3.68094 11.4836C3.81752 11.339 4.00597 11.2545 4.20482 11.2488C4.40366 11.2431 4.59662 11.3167 4.74125 11.4533C5.42015 12.0942 6.27289 12.5209 7.1929 12.6799C8.11291 12.839 9.05939 12.7234 9.91407 12.3475C10.7687 11.9717 11.4937 11.3523 11.9984 10.5668C12.503 9.78132 12.765 8.8645 12.7516 7.93094C12.7381 6.99738 12.4499 6.08848 11.9228 5.31783C11.3957 4.54718 10.6532 3.94895 9.78804 3.59789C8.9229 3.24684 7.97348 3.15854 7.05843 3.34402C6.14338 3.5295 5.30328 3.98054 4.64313 4.64077C4.635 4.6489 4.6275 4.6564 4.61875 4.6639L3.43062 5.74952H4.5C4.69891 5.74952 4.88968 5.82854 5.03033 5.96919C5.17098 6.10984 5.25 6.30061 5.25 6.49952C5.25 6.69843 5.17098 6.8892 5.03033 7.02985C4.88968 7.1705 4.69891 7.24952 4.5 7.24952H1.5C1.30109 7.24952 1.11032 7.1705 0.96967 7.02985C0.829018 6.8892 0.75 6.69843 0.75 6.49952V3.49952C0.75 3.30061 0.829018 3.10984 0.96967 2.96919C1.11032 2.82854 1.30109 2.74952 1.5 2.74952C1.69891 2.74952 1.88968 2.82854 2.03033 2.96919C2.17098 3.10984 2.25 3.30061 2.25 3.49952V4.79452L3.5925 3.56577C4.46806 2.69491 5.58198 2.10295 6.79367 1.8646C8.00536 1.62624 9.2605 1.75218 10.4007 2.22652C11.5409 2.70086 12.515 3.50233 13.2 4.52979C13.8851 5.55724 14.2505 6.76461 14.25 7.99952Z" fill="#B8FF34"/>
</svg>
