<svg width="28" height="28" viewBox="0 0 28 28" fill="none" xmlns="http://www.w3.org/2000/svg">
<path d="M22.75 5.6875H19.9522L18.5938 3.64656C18.4737 3.46661 18.311 3.31913 18.1202 3.21723C17.9294 3.11533 17.7163 3.06218 17.5 3.0625H10.5C10.2837 3.06218 10.0706 3.11533 9.87981 3.21723C9.68899 3.31913 9.52631 3.46661 9.40625 3.64656L8.04672 5.6875H5.25C4.43777 5.6875 3.65882 6.01016 3.08449 6.58449C2.51016 7.15882 2.1875 7.93778 2.1875 8.75V21C2.1875 21.8122 2.51016 22.5912 3.08449 23.1655C3.65882 23.7398 4.43777 24.0625 5.25 24.0625H22.75C23.1522 24.0625 23.5504 23.9833 23.922 23.8294C24.2935 23.6755 24.6311 23.4499 24.9155 23.1655C25.1999 22.8811 25.4255 22.5435 25.5794 22.172C25.7333 21.8004 25.8125 21.4022 25.8125 21V8.75C25.8125 8.34783 25.7333 7.94959 25.5794 7.57803C25.4255 7.20647 25.1999 6.86887 24.9155 6.58449C24.6311 6.30011 24.2935 6.07453 23.922 5.92062C23.5504 5.76672 23.1522 5.6875 22.75 5.6875ZM23.1875 21C23.1875 21.116 23.1414 21.2273 23.0594 21.3094C22.9773 21.3914 22.866 21.4375 22.75 21.4375H5.25C5.13397 21.4375 5.02269 21.3914 4.94064 21.3094C4.85859 21.2273 4.8125 21.116 4.8125 21V8.75C4.8125 8.63397 4.85859 8.52269 4.94064 8.44064C5.02269 8.35859 5.13397 8.3125 5.25 8.3125H8.75C8.96632 8.31282 9.17937 8.25967 9.37019 8.15777C9.56101 8.05587 9.72369 7.90839 9.84375 7.72844L11.2022 5.6875H16.7967L18.1562 7.72844C18.2763 7.90839 18.439 8.05587 18.6298 8.15777C18.8206 8.25967 19.0337 8.31282 19.25 8.3125H22.75C22.866 8.3125 22.9773 8.35859 23.0594 8.44064C23.1414 8.52269 23.1875 8.63397 23.1875 8.75V21ZM14 9.1875C12.9616 9.1875 11.9466 9.49541 11.0833 10.0723C10.2199 10.6492 9.54699 11.4691 9.14963 12.4284C8.75227 13.3877 8.64831 14.4433 8.85088 15.4617C9.05345 16.4801 9.55346 17.4156 10.2877 18.1498C11.0219 18.884 11.9574 19.3841 12.9758 19.5866C13.9942 19.7892 15.0498 19.6852 16.0091 19.2879C16.9684 18.8905 17.7883 18.2176 18.3652 17.3542C18.9421 16.4909 19.25 15.4759 19.25 14.4375C19.2486 13.0456 18.695 11.711 17.7107 10.7268C16.7265 9.74254 15.3919 9.18895 14 9.1875ZM14 17.0625C13.4808 17.0625 12.9733 16.9085 12.5416 16.6201C12.1099 16.3317 11.7735 15.9217 11.5748 15.442C11.3761 14.9624 11.3242 14.4346 11.4254 13.9254C11.5267 13.4162 11.7767 12.9485 12.1438 12.5813C12.511 12.2142 12.9787 11.9642 13.4879 11.8629C13.9971 11.7617 14.5249 11.8136 15.0045 12.0123C15.4842 12.211 15.8942 12.5475 16.1826 12.9791C16.471 13.4108 16.625 13.9183 16.625 14.4375C16.625 15.1337 16.3484 15.8014 15.8562 16.2937C15.3639 16.7859 14.6962 17.0625 14 17.0625Z" fill="white"/>
</svg>
