<svg width="312" height="118" viewBox="0 0 312 118" fill="none" xmlns="http://www.w3.org/2000/svg">
<g clip-path="url(#clip0_3023_1603)">
<mask id="mask0_3023_1603" style="mask-type:luminance" maskUnits="userSpaceOnUse" x="0" y="0" width="312" height="118">
<path d="M312 0H0V118H312V0Z" fill="white"/>
</mask>
<g mask="url(#mask0_3023_1603)">
<path d="M312 0H0V118H312V0Z" fill="black"/>
<path d="M44.8652 34.8632C45.2725 34.5578 45.8234 34.2566 46.2843 34.0377C46.8294 33.7788 47.3545 33.4755 47.9115 33.2394C49.3576 32.6267 50.6679 31.7347 52.1039 31.0904C53.591 30.423 55.0228 29.723 56.5522 29.1528C58.0173 28.6065 59.5114 28.1551 60.98 27.6211C61.8904 27.2901 62.845 27.0973 63.7568 26.7717C64.4149 26.5366 65.0165 26.1136 65.6943 25.8984C67.2555 25.4028 68.7189 24.5085 70.3473 24.2371C70.7474 24.1705 71.163 24.0034 71.5549 23.8926C72.1605 23.7213 72.7646 23.4876 73.356 23.2718C73.7554 23.126 74.1328 23.0577 74.5465 22.975C74.7754 22.9292 74.979 22.8129 75.2117 22.7805C75.4101 22.7529 75.5954 22.7432 75.7848 22.6714C76.4108 22.434 77.0781 22.3557 77.7156 22.1529C78.4161 21.93 79.1335 21.7951 79.8442 21.6139C80.4022 21.4717 80.9858 21.3442 81.5567 21.2796C81.832 21.2484 82.0792 21.1414 82.3481 21.0851C82.5624 21.0403 82.7839 21.0705 82.9962 21.0203C84.2384 20.727 85.4242 20.3722 86.7145 20.3722C87.343 20.3722 88.0421 20.3689 88.6453 20.188" stroke="white" stroke-width="3" stroke-linecap="round"/>
<path d="M88.6457 20.188C88.6457 21.272 88.5324 22.4743 88.1545 23.4901C87.9792 23.9611 87.9616 24.5447 87.8782 25.0456C87.6862 26.1976 87.4674 27.3631 87.4142 28.5319C87.3793 29.301 87.2508 30.0452 87.1857 30.8106C87.0606 32.2806 86.976 33.7492 86.8309 35.218C86.7629 35.9061 86.6808 36.618 86.6808 37.3091C86.6808 37.8801 86.6933 38.4371 86.5921 39.001C86.4219 39.9496 86.4263 40.9355 86.3772 41.8938C86.351 42.4051 86.2514 42.8963 86.2032 43.405C86.143 44.0405 86.1896 44.6976 86.1896 45.3357C86.1896 45.8497 86.2442 46.4014 86.1555 46.9083C86.069 47.4024 86.0831 47.8993 85.9576 48.3854C85.8646 48.7458 85.9737 49.1545 85.8962 49.5248C85.7791 50.0841 85.8212 50.6598 85.8212 51.2304C85.8212 51.8347 85.7598 52.432 85.7598 53.0315C85.7598 53.7502 85.7598 54.4688 85.7598 55.1874" stroke="white" stroke-width="3" stroke-linecap="round"/>
<path d="M85.9105 55.1206C85.9105 56.09 85.7915 57.0191 85.7353 57.9851C85.6456 59.5291 85.6303 61.126 85.6303 62.671C85.6303 63.7746 85.4947 64.8556 85.424 65.9519C85.3606 66.9339 85.4201 67.9373 85.4201 68.9215C85.4201 70.1373 85.4543 71.353 85.3345 72.5643C85.2304 73.6168 85.1484 74.698 85.1399 75.7557C85.124 77.7184 84.7195 79.6314 84.7195 81.582C84.7195 82.1152 84.7195 82.6484 84.7195 83.1816C84.7195 83.6916 84.5889 84.1717 84.5794 84.6839C84.5703 85.1769 84.3693 85.664 84.3693 86.155C84.3693 86.8379 84.1739 87.4528 84.0501 88.1166C83.8544 89.1661 83.6502 90.2736 83.3184 91.269" stroke="white" stroke-width="3" stroke-linecap="round"/>
<path d="M83.3887 90.5684C83.1944 91.6132 82.726 92.5204 82.3068 93.5068C81.7865 94.7309 81.1156 95.7838 80.1662 96.7332C79.5331 97.3664 79.0434 98.0373 78.2747 98.5391C77.7511 98.8809 77.2515 99.2649 76.7335 99.6171C76.2258 99.9624 75.8338 100.452 75.3363 100.796C75.0983 100.961 74.9402 101.225 74.733 101.427C74.449 101.703 74.1254 101.969 73.7912 102.182C72.81 102.808 72.0664 103.778 70.9851 104.264C70.4865 104.488 70.0076 104.772 69.549 105.066C69.2512 105.256 68.8988 105.345 68.6071 105.545C68.4063 105.682 68.133 105.865 67.9066 105.949C67.4167 106.132 66.944 106.428 66.4354 106.541C66.2417 106.584 66.0694 106.69 65.875 106.736C65.6927 106.778 65.5215 106.731 65.3534 106.806C65.0906 106.922 64.7973 106.782 64.54 106.996C64.4642 107.059 64.3001 107.031 64.2131 107.035C63.8468 107.053 63.5156 107.164 63.1662 107.265C62.9484 107.327 62.7312 107.375 62.5123 107.436C61.8644 107.616 61.2248 107.942 60.5508 107.942" stroke="white" stroke-width="3" stroke-linecap="round"/>
<path d="M60.481 108.082C60.1736 108.082 59.9944 108.276 59.7104 108.347C59.4744 108.406 59.2253 108.435 58.9943 108.518C58.4379 108.718 57.8396 108.869 57.2585 109.063C55.8808 109.522 54.3783 109.677 52.9384 109.849C51.5664 110.013 50.2568 110.513 48.883 110.608C47.5946 110.697 46.3266 111.008 45.0416 111.091C44.338 111.136 43.6181 111.094 42.9127 111.094C41.3968 111.094 39.8199 111.165 38.3125 111.308C37.8291 111.354 37.3643 111.427 36.8763 111.305C36.5085 111.213 36.021 111.164 35.6465 111.164C34.1702 111.164 32.694 111.127 31.2135 111.094C30.3846 111.076 29.5569 110.898 28.7227 110.884C28.2972 110.877 27.9354 110.628 27.5162 110.604C27.3085 110.592 27.1384 110.452 26.9402 110.394C26.719 110.329 26.5019 110.314 26.2902 110.219C25.8955 110.041 25.3948 109.987 24.9709 109.907C24.5408 109.827 24.1585 109.598 23.7332 109.522C22.7733 109.35 21.6351 109.08 20.7598 108.642" stroke="white" stroke-width="3" stroke-linecap="round"/>
<path d="M22.6514 108.993C22.1272 108.993 21.7398 108.78 21.2503 108.658C20.7414 108.531 20.2242 108.135 19.7091 108.078C19.1348 108.014 18.3793 107.679 17.8721 107.397C17.7063 107.305 17.5312 107.287 17.3545 107.23C17.0127 107.12 16.6848 106.862 16.3776 106.681C15.7651 106.32 15.2458 105.836 14.7002 105.385C14.2077 104.978 13.708 104.616 13.373 104.058C12.9544 103.36 12.5884 102.62 12.3689 101.832C12.1671 101.107 12.0731 100.28 12.0731 99.5276C12.0731 98.6917 11.9453 97.7387 12.1587 96.9278C12.4024 96.002 12.7383 95.1548 13.1784 94.3202C13.7003 93.3304 14.7125 92.7807 15.4007 91.9305C16.4172 90.6749 17.7577 89.6398 18.8996 88.4978C19.402 87.9954 20.0375 87.527 20.4836 86.9916C20.7007 86.7311 21.154 86.5646 21.4216 86.3339C21.7808 86.0242 22.1624 85.7526 22.5269 85.4543C24.6815 83.6915 26.6599 81.7062 29.0264 80.2002" stroke="white" stroke-width="3" stroke-linecap="round"/>
<path d="M27.9062 80.8305C28.5462 80.2487 29.3439 79.8542 30.0935 79.4294C30.5744 79.1569 31.0395 78.8633 31.5101 78.5731C32.0688 78.2288 32.6173 77.7902 33.2071 77.5068C34.2478 77.0067 35.2503 76.3873 36.2584 75.8254C37.6375 75.0567 39.0515 74.3098 40.4305 73.5603C40.9627 73.2711 41.5772 73.1165 42.1274 72.8598C42.6877 72.5983 43.2776 72.3569 43.8633 72.1592C44.5333 71.9331 45.1756 71.6248 45.8559 71.4275C46.6687 71.1918 47.4199 70.7488 48.2378 70.5479C49.664 70.1977 51.1228 69.8441 52.519 69.3959C53.0056 69.2397 53.4585 68.9973 53.9511 68.8511C54.3868 68.7217 54.8019 68.5287 55.2355 68.3918C55.6622 68.2571 56.1001 68.1706 56.5392 68.0882C56.6985 68.0584 57.3111 68.0399 57.4694 67.9014C57.7544 67.652 58.2076 67.636 58.5592 67.5511C59.0595 67.4304 59.5064 67.1823 60.0225 67.0997C61.0317 66.9382 62.0407 66.8226 63.0583 66.7144C63.7984 66.6356 64.513 66.4795 65.2455 66.368C66.0635 66.2435 66.9344 66.1177 67.7325 65.9048C68.6649 65.6562 69.6854 65.7172 70.6437 65.5974C71.5764 65.4808 72.5068 65.3852 73.4459 65.3444C75.3373 65.2622 77.2036 64.998 79.0932 64.998C80.6759 64.998 82.2586 64.998 83.8414 64.998C84.4186 64.998 84.9458 64.9436 85.5265 64.9941C86.2007 65.0528 86.8411 65.2782 87.5232 65.2782" stroke="white" stroke-width="3" stroke-linecap="round"/>
<path d="M86.541 65.2086C86.7694 65.3608 87.2004 65.2786 87.4673 65.2786C87.8269 65.2786 88.1519 65.3058 88.5026 65.3448C89.0413 65.4046 89.6108 65.4745 90.1527 65.4888C90.7968 65.5057 91.4551 65.6549 92.1026 65.7028C92.65 65.7434 93.2305 65.9152 93.7567 66.0648C94.7372 66.3435 95.6741 66.6132 96.6017 66.9911C96.9618 67.1378 97.3585 67.0472 97.7031 67.2402C97.9487 67.3777 98.2448 67.5004 98.5204 67.5749C99.6168 67.8712 100.754 67.8006 101.883 67.8006C102.601 67.8006 102.887 67.5121 103.249 66.921C103.472 66.5572 103.786 66.2042 103.942 65.8079C104.111 65.3785 104.224 64.9275 104.514 64.5547C105.986 62.6627 108.796 62.7566 110.959 62.7566C112.659 62.7566 114.333 62.9207 116.019 63.0913C116.354 63.1253 116.67 63.1699 116.999 63.247C117.915 63.461 118.864 63.4077 119.778 63.6284C120.146 63.7173 120.563 63.6673 120.938 63.6673C121.377 63.6673 122.056 63.7921 122.409 63.5272" stroke="white" stroke-width="3" stroke-linecap="round"/>
<path d="M119.746 63.177C120.1 63.2065 120.421 63.3791 120.781 63.3871C121.196 63.3963 121.613 63.3916 122.027 63.3832C122.581 63.372 123.225 63.3852 123.77 63.2626C124.226 63.1601 124.696 63.2252 125.144 63.103C126.199 62.8152 127.332 62.4316 128.429 62.3402C129.469 62.2535 130.439 61.6325 131.297 61.0831C131.957 60.6609 132.626 60.2785 133.282 59.861C134.412 59.1423 135.78 58.4898 137.12 58.3587C137.943 58.2782 138.654 58.4297 139.393 58.7791C140.637 59.3675 142.002 59.6316 143.316 60.0089C144.151 60.2488 144.788 60.691 145.511 61.1765C146.04 61.532 146.652 61.4448 147.27 61.5307C148.197 61.6594 149.106 61.7759 150.049 61.7759C150.705 61.7759 151.371 61.8053 152.026 61.7603C153.136 61.684 154.249 61.2605 155.217 60.725C155.799 60.4033 156.214 59.8114 156.751 59.4173C157.37 58.9625 158.001 58.4351 158.549 57.8995C158.926 57.5307 159.112 57.2468 159.366 56.7981C159.653 56.2915 159.732 55.8161 159.903 55.2763C160.143 54.5173 160.436 53.8106 160.573 53.019C160.64 52.629 160.732 52.3294 160.9 51.9643C161.042 51.6545 161.077 51.2633 161.25 50.9718C161.624 50.3399 161.523 50.0767 162.34 50.0767" stroke="white" stroke-width="3" stroke-linecap="round"/>
<path d="M161.99 50.5671C162.319 50.5671 162.673 50.174 162.971 50.0222C163.354 49.8272 163.766 49.7018 164.166 49.5551C165.787 48.9609 167.611 48.9982 169.303 48.7456C170.084 48.629 170.914 48.6439 171.701 48.7106C172.792 48.8031 173.869 48.8256 174.966 48.8157C176.722 48.7997 178.384 48.5531 180.029 47.94C180.552 47.7454 181.129 47.6641 181.676 47.5547" stroke="white" stroke-width="3" stroke-linecap="round"/>
<path d="M181.115 47.7645C181.479 47.7645 181.842 47.7645 182.205 47.7645C182.676 47.7645 183.054 47.5875 183.513 47.4843C184.111 47.3496 184.632 47.0546 185.217 46.9083C185.39 46.8651 185.737 46.7124 185.844 46.5697C185.992 46.3722 186.439 46.2078 186.506 45.9742C186.544 45.8413 186.514 45.6391 186.51 45.5072C186.482 44.6513 186.329 43.7523 186.058 42.9385C185.664 41.7575 185.154 40.6311 184.859 39.4201C184.654 38.5767 184.516 37.7096 184.299 36.8709C184.213 36.54 184.252 36.1949 184.167 35.8707C184.026 35.339 183.923 34.8208 183.805 34.2789C183.632 33.4898 183.382 32.722 183.131 31.9554C182.639 30.4484 182.319 28.8916 181.831 27.3862C181.693 26.957 181.389 26.6066 181.24 26.172C181.095 25.7489 181.002 25.3138 180.87 24.8876C180.604 24.0292 180.228 23.2177 179.979 22.3501C179.492 20.6549 178.801 18.9778 178.08 17.3684C177.947 17.0715 177.705 16.8659 177.581 16.5627C177.499 16.3605 177.412 16.2007 177.297 16.0217C177.123 15.7499 177.024 15.3084 176.799 15.0838C176.63 14.9144 176.447 14.6402 176.336 14.4183C176.077 13.9005 175.865 15.4805 175.861 15.6248C175.838 16.6688 175.679 17.7233 175.725 18.7734C175.821 20.9882 176.397 23.0326 176.928 25.1678C177.193 26.2337 177.391 27.3016 177.613 28.3748C177.725 28.9178 177.842 29.459 177.955 30.0016C178.068 30.5419 178.281 31.1346 178.309 31.683C178.345 32.3748 178.643 33.0751 178.8 33.7535C179.01 34.6669 179.27 35.5704 179.469 36.4895C179.625 37.2113 180.065 37.937 180.065 38.6768C180.065 39.5241 180.274 40.2235 180.539 41.0314C180.754 41.6861 180.868 42.3674 181.084 43.0241C181.351 43.8347 181.659 44.6464 181.886 45.4682C182.034 46.0048 182.141 46.5483 182.24 47.0951C182.302 47.437 182.488 47.7411 182.548 48.0875C182.675 48.8323 182.877 49.4777 183.116 50.1931C183.285 50.7016 183.365 51.228 183.513 51.7421C183.718 52.454 183.978 53.1518 184.198 53.8593" stroke="white" stroke-width="3" stroke-linecap="round"/>
<path d="M119.094 75.2422C120.192 75.2422 121.747 75.0063 122.681 74.4317C123.1 74.1741 123.72 74.1929 124.189 74.0398C125.288 73.681 126.432 73.5457 127.544 73.236C129.113 72.7991 130.6 72.161 132.194 71.7745C133.224 71.5249 134.207 71.0616 135.243 70.8179C136.194 70.5942 137.257 70.4591 138.166 70.1071C138.647 69.921 139.182 69.9043 139.687 69.8347C140.33 69.7464 140.959 69.4966 141.581 69.3165C142.979 68.9117 144.463 68.6135 145.905 68.3998C146.999 68.2378 148.072 67.7202 149.134 67.4166C150.367 67.0642 151.602 66.7263 152.814 66.3006C153.535 66.0472 154.295 65.908 155.02 65.6761C155.65 65.4743 156.465 65.0782 157.119 65.0782C157.81 65.0782 158.409 64.6327 159.099 64.5933C159.951 64.5446 161.07 64.2128 161.849 63.8825C163.113 63.3461 164.381 62.7759 165.728 62.514C166.775 62.3105 167.801 61.9319 168.837 61.7567C169.504 61.644 170.081 61.2795 170.744 61.1322C171.28 61.0131 171.873 60.863 172.372 60.6274C173.65 60.0232 175.079 59.775 176.437 59.3917C177.568 59.0726 178.746 58.938 179.872 58.6078C180.678 58.3713 181.454 58.0152 182.256 57.7575C183.455 57.3728 184.607 56.8507 185.824 56.5286C187.091 56.1932 188.334 55.8735 189.577 55.459C190.697 55.0859 191.897 54.8484 192.992 54.4227C194.216 53.9465 195.446 53.5475 196.732 53.2535C197.83 53.0025 198.879 52.8515 199.861 52.257C200.685 51.758 201.465 51.383 202.319 50.9948C203.282 50.557 204.364 50.3586 205.348 49.9585C208.191 48.8027 210.807 47.1822 213.718 46.2118C214.882 45.8238 216.08 45.4663 217.259 45.1223C219.931 44.3431 222.401 43.0414 225.045 42.1861C225.906 41.9075 226.767 41.706 227.609 41.4088C228.093 41.2382 228.67 41.2604 229.104 41.0435" stroke="white" stroke-width="3" stroke-linecap="round"/>
<path d="M227.906 41.1631C228.749 41.1631 229.266 40.9225 230.052 40.6915C230.731 40.4917 231.508 40.2686 232.145 39.9674C232.588 39.7571 233.081 39.6699 233.533 39.4891C234.225 39.2123 234.897 38.884 235.586 38.5989C237.092 37.9755 238.716 37.6007 240.262 37.0909C241.998 36.5186 243.713 35.9064 245.417 35.2507C247.021 34.634 248.599 33.9488 250.214 33.3641C253.08 32.3261 255.869 31.1805 258.697 30.0492C260.158 29.4647 261.651 28.9508 263.115 28.3685C264.079 27.9848 265.066 27.5872 266.084 27.372C266.825 27.2154 267.806 26.8338 268.499 26.5C268.99 26.2637 269.293 26.2598 269.758 25.977C270.605 25.4615 271.492 25.1786 272.402 24.8078C273.463 24.3755 274.399 23.8504 275.491 23.5124C276.558 23.1821 277.646 22.5192 278.633 22.0044C280.156 21.21 281.724 20.392 283.336 19.7989C286.149 18.764 288.91 17.5853 291.733 16.5836C293.755 15.8663 295.623 15.1146 297.739 14.7368" stroke="white" stroke-width="3" stroke-linecap="round"/>
<path d="M297.314 14.8986C297.487 14.6222 298.065 14.5672 298.37 14.5061C298.798 14.4205 299.324 14.1427 299.744 13.9915C300.784 13.6173 301.798 13.1859 302.8 12.7024C304.749 11.7614 306.828 10.9696 308.71 9.89069C309.339 9.52993 309.875 9.16222 310.566 8.88273C310.945 8.72964 311.224 8.40527 311.638 8.40527" stroke="white" stroke-width="3" stroke-linecap="round"/>
<path d="M183.715 53.6309C183.859 55.071 185.07 56.4116 185.172 57.8392C185.309 59.7656 187.022 61.7217 187.669 63.5274C190.147 70.4396 193.059 77.391 196.779 83.7368C198.192 86.1461 199.114 88.825 200.525 91.2286C201.38 92.6856 202.006 94.2473 203.069 95.6219C203.537 96.2277 204.014 96.7279 204.456 97.333C205.16 98.2979 206.343 99.511 206.768 100.616C207.071 101.403 207.876 101.907 208.387 102.651C209.445 104.193 211.398 105.048 212.017 106.906" stroke="white" stroke-width="3" stroke-linecap="round"/>
<path d="M204.111 98.5812C202.512 98.5812 201.473 98.0092 199.96 97.6563C198.703 97.3629 197.83 96.3346 196.619 96.0377C194.919 95.6208 193.249 94.3898 191.625 93.7023C189.897 92.9715 187.699 92.3829 186.191 91.286C184.891 90.3407 183.754 89.2373 182.491 88.2453C181.636 87.5737 180.713 87.0331 180.017 86.1874C179.156 85.1424 178.016 84.4632 177.728 83.0196C177.212 80.4403 178.78 79.069 180.086 77.0308C180.925 75.7222 182.018 74.5357 183.208 73.5623C183.651 73.1997 183.923 72.57 184.341 72.1518C185.281 71.2115 186.222 70.2712 187.162 69.3309C192.498 63.9945 197.687 58.5449 203.001 53.1911C208.71 47.4392 213.808 41.2695 220.551 36.7739" stroke="white" stroke-width="3" stroke-linecap="round"/>
<path d="M220.966 36.3578C221.951 36.3578 222.831 35.6321 223.718 35.271C223.998 35.1567 224.121 34.9243 224.342 34.7392C224.759 34.3899 225.364 34.3953 225.81 34.0802C226.362 33.6909 227.021 33.3876 227.626 33.0743C231.989 30.8147 236.545 28.2727 240.597 25.4669C242.247 24.3249 244.625 22.2318 246.725 21.9985C247.507 21.9117 248.005 21.5823 248.852 21.5823C249.793 21.5823 250.011 22.7148 249.477 23.409C248.711 24.4045 245.316 23.8612 244.274 23.7096C242.91 23.5111 241.417 23.6633 240.043 23.6633C237.867 23.6633 235.598 24.0087 233.452 24.3917C231.441 24.7509 229.035 24.7039 226.978 24.7039C224.924 24.7039 223.053 24.7083 221.059 24.1836C219.565 23.7906 217.886 24.0237 216.399 23.5593C215.921 23.4099 215.535 23.3934 215.139 23.039C214.989 22.9044 214.316 22.7535 214.318 22.7616C214.454 23.237 214.892 23.6405 214.931 24.1258C214.953 24.3947 215.1 25.0324 215.266 25.2357C216.256 26.4457 216.852 27.9852 217.856 29.1781C218.728 30.214 219.607 31.4607 220.55 32.4038C221.576 33.4297 224.659 34.3111 226.007 33.4443C227.737 32.3321 229.479 31.1675 231.048 29.8603C234.162 27.2646 237.238 24.5768 240.274 21.8829C241.871 20.4654 244.984 18.4998 245.106 16.1715C245.143 15.4817 245.266 14.9563 244.69 14.6686C244.02 14.3334 244.268 14.6521 244.598 15.3507C244.891 15.9717 244.987 16.619 245.268 17.2121C245.723 18.1712 246.205 19.1034 246.656 20.0446C247.503 21.8172 247.946 23.7873 248.563 25.6403C249.167 27.4516 250.146 29.4791 251.061 31.1667C252.383 33.6087 253.575 36.1364 254.251 38.8435C254.743 40.8085 255.655 42.8659 255.905 44.867C256.154 46.8646 257.427 48.7053 257.581 50.7055C257.699 52.2424 258.945 53.7457 259.258 55.3069C259.499 56.515 260.309 57.7078 260.807 58.8447C261.183 59.7056 261.43 60.7384 261.963 61.5385" stroke="white" stroke-width="3" stroke-linecap="round"/>
<path d="M218.261 54.8794C218.261 56.4402 218.261 58.001 218.261 59.5618C218.261 60.7291 216.596 60.4822 216.596 59.2496" stroke="white" stroke-width="3" stroke-linecap="round"/>
</g>
</g>
<defs>
<clipPath id="clip0_3023_1603">
<rect width="312" height="118" fill="white"/>
</clipPath>
</defs>
</svg>
