<svg width="16" height="16" viewBox="0 0 16 16" fill="none" xmlns="http://www.w3.org/2000/svg">
<path d="M13.75 0H1.25C0.918479 0 0.600537 0.140476 0.366116 0.390524C0.131696 0.640573 0 0.979711 0 1.33333V14.6667C0 15.0203 0.131696 15.3594 0.366116 15.6095C0.600537 15.8595 0.918479 16 1.25 16H13.75C14.0815 16 14.3995 15.8595 14.6339 15.6095C14.8683 15.3594 15 15.0203 15 14.6667V1.33333C15 0.979711 14.8683 0.640573 14.6339 0.390524C14.3995 0.140476 14.0815 0 13.75 0ZM5 7.33333C5 6.80592 5.14662 6.29034 5.42133 5.85181C5.69603 5.41328 6.08648 5.07149 6.54329 4.86965C7.00011 4.66782 7.50277 4.61501 7.98773 4.71791C8.47268 4.8208 8.91814 5.07478 9.26777 5.44772C9.6174 5.82066 9.8555 6.29581 9.95196 6.81309C10.0484 7.33038 9.99892 7.86655 9.8097 8.35382C9.62048 8.84109 9.30005 9.25757 8.88893 9.55059C8.4778 9.8436 7.99445 10 7.5 10C6.83696 10 6.20107 9.71905 5.73223 9.21895C5.26339 8.71885 5 8.04058 5 7.33333ZM2.86484 14.6667C3.18467 13.8268 3.69886 13.0871 4.35938 12.5167C5.24868 11.7509 6.35709 11.3333 7.5 11.3333C8.64291 11.3333 9.75132 11.7509 10.6406 12.5167C11.3011 13.0871 11.8153 13.8268 12.1352 14.6667H2.86484ZM13.75 14.6667H13.4633C13.1854 13.7231 12.7139 12.8573 12.0831 12.1324C11.4522 11.4075 10.6779 10.8416 9.81641 10.4758C10.4297 9.96196 10.8776 9.25689 11.0976 8.45879C11.3177 7.66068 11.299 6.80925 11.0441 6.02302C10.7892 5.23679 10.3109 4.55488 9.67565 4.07223C9.04042 3.58958 8.27991 3.3302 7.5 3.3302C6.72009 3.3302 5.95958 3.58958 5.32435 4.07223C4.68912 4.55488 4.21077 5.23679 3.9559 6.02302C3.70102 6.80925 3.68231 7.66068 3.90236 8.45879C4.1224 9.25689 4.57027 9.96196 5.18359 10.4758C4.32207 10.8416 3.54776 11.4075 2.91693 12.1324C2.28611 12.8573 1.81462 13.7231 1.53672 14.6667H1.25V1.33333H13.75V14.6667Z" fill="#B8FF34"/>
</svg>
